<svg width="20" height="20" viewBox="0 0 20 20" fill="none" xmlns="http://www.w3.org/2000/svg">
<path d="M6.73363 16.6667C9.22314 16.75 11.6405 15.823 13.436 14.0965C15.2316 12.37 16.2526 9.99086 16.267 7.5C16.8317 6.80117 17.251 5.99652 17.5003 5.13333C17.5383 4.99402 17.491 4.84537 17.3795 4.75364C17.268 4.6619 17.113 4.64416 16.9836 4.70833C16.3778 4.99994 15.6535 4.87251 15.1836 4.39166C14.5926 3.74444 13.7647 3.36413 12.8886 3.33744C12.0125 3.31075 11.163 3.63995 10.5336 4.25C9.6661 5.09016 9.30241 6.32356 9.5753 7.5C6.78363 7.66666 4.86696 6.34166 3.33363 4.525C3.23951 4.4184 3.09126 4.37756 2.95582 4.4209C2.82038 4.46424 2.72339 4.58356 2.70863 4.725C2.11039 8.04347 3.63935 11.3839 6.54196 13.1C5.59166 14.1899 4.25714 14.8705 2.81696 15C2.65878 15.0262 2.53478 15.1501 2.50842 15.3083C2.48206 15.4665 2.55917 15.6239 2.7003 15.7C3.95323 16.3261 5.33299 16.6568 6.73363 16.6667Z" fill="white"/>
</svg>
