<svg width="20" height="20" viewBox="0 0 20 20" fill="none" xmlns="http://www.w3.org/2000/svg">
<path d="M8.14822 9.99996C8.14822 11.0225 8.97704 11.8517 9.99996 11.8517C11.0229 11.8517 11.8517 11.0229 11.8517 9.99996C11.8517 8.97739 11.0229 8.14822 9.99996 8.14822C8.97739 8.14822 8.14822 8.97704 8.14822 9.99996Z" fill="white"/>
<path fill-rule="evenodd" clip-rule="evenodd" d="M9.99996 5.44545C11.4833 5.44545 11.659 5.451 12.2448 5.47774C12.877 5.50656 13.4638 5.63329 13.9152 6.08468C14.3666 6.53607 14.4934 7.12288 14.5222 7.75517C14.5489 8.34093 14.5545 8.51663 14.5545 9.99996C14.5545 11.4833 14.5489 11.659 14.5222 12.2448C14.4934 12.877 14.3666 13.4638 13.9152 13.9152C13.4638 14.3666 12.877 14.4934 12.2448 14.5222C11.659 14.5489 11.4833 14.5545 9.99996 14.5545C8.51663 14.5545 8.34093 14.5489 7.75517 14.5222C7.12288 14.4934 6.53607 14.3666 6.08468 13.9152C5.63329 13.4638 5.50656 12.877 5.47774 12.2448C5.451 11.659 5.44545 11.4833 5.44545 9.99996C5.44545 8.51663 5.451 8.34093 5.47774 7.75517C5.50656 7.12288 5.63329 6.53607 6.08468 6.08468C6.53607 5.63329 7.12288 5.50656 7.75517 5.47774C8.34093 5.451 8.51663 5.44545 9.99996 5.44545ZM7.14718 9.99996C7.14718 8.42461 8.42427 7.14718 9.99996 7.14718C11.5757 7.14718 12.8527 8.42461 12.8527 9.99996C12.8527 11.5753 11.5753 12.8527 9.99996 12.8527C8.42461 12.8527 7.14718 11.5753 7.14718 9.99996ZM12.9656 7.701C13.3338 7.701 13.6323 7.40252 13.6323 7.03433C13.6323 6.66614 13.3338 6.36767 12.9656 6.36767C12.5974 6.36767 12.2989 6.66614 12.2989 7.03433C12.2989 7.40252 12.5974 7.701 12.9656 7.701Z" fill="white"/>
<path fill-rule="evenodd" clip-rule="evenodd" d="M6.5642 1.71663C7.45308 1.67635 7.73676 1.66663 9.99996 1.66663C12.2632 1.66663 12.5468 1.67635 13.4357 1.71663C14.7906 1.77843 15.9798 2.11038 16.9347 3.06524C17.8899 4.02045 18.2215 5.21003 18.2833 6.5642C18.3236 7.45308 18.3333 7.73676 18.3333 9.99996C18.3333 12.2632 18.3236 12.5468 18.2833 13.4357C18.2215 14.7906 17.8895 15.9798 16.9347 16.9347C15.9795 17.8899 14.7895 18.2215 13.4357 18.2833C12.5468 18.3236 12.2632 18.3333 9.99996 18.3333C7.73676 18.3333 7.45308 18.3236 6.5642 18.2833C5.20933 18.2215 4.0201 17.8895 3.06524 16.9347C2.11003 15.9795 1.77843 14.7899 1.71663 13.4357C1.67635 12.5468 1.66663 12.2632 1.66663 9.99996C1.66663 7.73676 1.67635 7.45308 1.71663 6.5642C1.77843 5.20933 2.11038 4.0201 3.06524 3.06524C4.02045 2.11003 5.21003 1.77843 6.5642 1.71663ZM9.99996 4.4444C8.49128 4.4444 8.30204 4.45065 7.70933 4.47774C6.80656 4.51906 6.0135 4.74024 5.3767 5.3767C4.74024 6.01315 4.51906 6.80621 4.47774 7.70933C4.45065 8.30204 4.4444 8.49128 4.4444 9.99996C4.4444 11.5086 4.45065 11.6979 4.47774 12.2906C4.51906 13.1934 4.74024 13.9864 5.3767 14.6232C6.01315 15.2597 6.80621 15.4809 7.70933 15.5222C8.30204 15.5493 8.49128 15.5555 9.99996 15.5555C11.5086 15.5555 11.6979 15.5493 12.2906 15.5222C13.1934 15.4809 13.9864 15.2597 14.6232 14.6232C15.2597 13.9868 15.4809 13.1937 15.5222 12.2906C15.5493 11.6979 15.5555 11.5086 15.5555 9.99996C15.5555 8.49128 15.5493 8.30204 15.5222 7.70933C15.4809 6.80656 15.2597 6.0135 14.6232 5.3767C13.9868 4.74024 13.1937 4.51906 12.2906 4.47774C11.6979 4.45065 11.5086 4.4444 9.99996 4.4444Z" fill="white"/>
</svg>
