<svg width="73" height="73" viewBox="0 0 73 73" fill="none" xmlns="http://www.w3.org/2000/svg">
<mask id="mask0_1_460" style="mask-type:luminance" maskUnits="userSpaceOnUse" x="2" y="2" width="69" height="69">
<path d="M2.33325 2.6015H70.625V70.9035H2.33325V2.6015Z" fill="white"/>
</mask>
<g mask="url(#mask0_1_460)">
<path d="M70.5228 10.9581C70.3741 10.4845 69.9753 10.1326 69.4872 10.0444L64.1537 9.08306L63.192 3.74956C63.1041 3.26104 62.7522 2.86223 62.2787 2.71392C61.8055 2.5656 61.2885 2.69231 60.9376 3.04314L54.3308 9.65032C48.8296 5.9688 42.4377 4.02752 35.7709 4.02752C26.8394 4.02752 18.4425 7.50579 12.1268 13.8215C5.81116 20.1371 2.33325 28.534 2.33325 37.4655C2.33325 46.3974 5.81116 54.7939 12.1268 61.1096C18.4425 67.4252 26.8394 70.9035 35.7709 70.9035C44.7024 70.9035 53.0996 67.4252 59.4149 61.1096C65.7306 54.7943 69.2089 46.3974 69.2089 37.4655C69.2089 30.7997 67.2676 24.4079 63.5861 18.9059L70.1932 12.2988C70.5441 11.9479 70.6708 11.4316 70.5228 10.9581ZM34.8282 38.4085C35.0886 38.6685 35.4299 38.7989 35.7709 38.7989C36.1122 38.7989 36.4531 38.6685 36.7135 38.4085L43.9473 31.1747C45.2916 32.9179 46.094 35.0994 46.094 37.4655C46.094 43.1579 41.4629 47.7886 35.7709 47.7886C30.0789 47.7886 25.4481 43.1579 25.4481 37.4655C25.4481 31.7735 30.0789 27.1428 35.7709 27.1428C38.1373 27.1428 40.3188 27.9451 42.062 29.2895L34.8282 36.5229C34.3079 37.0436 34.3079 37.8878 34.8282 38.4085ZM43.9601 27.3914C41.724 25.5702 38.8727 24.4767 35.7709 24.4767C28.6089 24.4767 22.7821 30.3035 22.7821 37.4655C22.7821 44.6275 28.6089 50.4546 35.7709 50.4546C42.9332 50.4546 48.76 44.6275 48.76 37.4655C48.76 34.3637 47.6661 31.5128 45.8453 29.2767L51.2338 23.8882C54.4224 27.5152 56.3593 32.2682 56.3593 37.4655C56.3593 48.8181 47.1234 58.0539 35.7709 58.0539C24.4183 58.0539 15.1825 48.8181 15.1825 37.4655C15.1825 26.1133 24.4187 16.8771 35.7709 16.8771C40.9685 16.8771 45.7216 18.814 49.3485 22.003L43.9601 27.3914ZM66.5428 37.4655C66.5428 54.4332 52.7385 68.2375 35.7709 68.2375C18.8032 68.2375 4.99927 54.4332 4.99927 37.4655C4.99927 20.4982 18.8032 6.6939 35.7709 6.6939C41.728 6.6939 47.4453 8.37774 52.4056 11.5755L51.8765 12.1047C51.5677 12.4134 51.4297 12.8539 51.5073 13.2839L52.5089 18.8426L51.2363 20.1155C47.1234 16.4457 41.7035 14.2115 35.7712 14.2115C22.9484 14.2115 12.5168 24.6434 12.5168 37.4659C12.5168 50.288 22.9484 60.7199 35.7712 60.7199C48.5938 60.7199 59.0256 50.288 59.0256 37.4659C59.0256 31.5333 56.7914 26.1133 53.1216 22.0008L54.3942 20.7278L59.9529 21.7298C60.0316 21.7441 60.1107 21.751 60.1895 21.751C60.5396 21.751 60.8798 21.6126 61.1321 21.3607L61.6609 20.8315C64.859 25.7922 66.5428 31.5095 66.5428 37.4655ZM59.7397 18.9821L55.0922 18.1446L54.2543 13.497L61.0204 6.73089L61.6938 10.467C61.7927 11.0148 62.2216 11.4437 62.769 11.5425L66.5055 12.216L59.7397 18.9821Z" fill="url(#paint0_linear_1_460)"/>
</g>
<defs>
<linearGradient id="paint0_linear_1_460" x1="36.4584" y1="2.65289" x2="36.4584" y2="70.9035" gradientUnits="userSpaceOnUse">
<stop stop-color="#72BF44"/>
<stop offset="1" stop-color="#00786B"/>
</linearGradient>
</defs>
</svg>
