<svg width="28" height="28" viewBox="0 0 28 28" fill="none" xmlns="http://www.w3.org/2000/svg">
<path d="M14 27.6607C21.4599 27.6607 27.6608 21.4599 27.6608 14C27.6608 6.52684 21.4465 0.339355 13.9867 0.339355C6.51341 0.339355 0.339355 6.52684 0.339355 14C0.339355 21.4599 6.52684 27.6607 14 27.6607ZM10.5045 17.3349C7.18307 14.0268 5.06701 9.80804 7.57147 7.30364C7.71878 7.15627 7.87953 7.00896 8.02684 6.86164C8.79021 6.13844 9.52684 6.17861 10.1831 7.10273L11.9242 9.58038C12.5134 10.4375 12.3661 10.9197 11.7367 11.5894L11.1875 12.192C10.9867 12.3795 11.067 12.634 11.1608 12.7947C11.4152 13.2768 12.1384 14.134 12.9152 14.9108C13.7188 15.7143 14.5358 16.3974 15.0447 16.6786C15.2322 16.7858 15.5 16.8126 15.6742 16.6518L16.25 16.1027C16.8929 15.4732 17.4152 15.3126 18.2456 15.9018C19.3974 16.7188 20.0938 17.201 20.7768 17.6697C21.6206 18.2858 21.8215 19.0492 20.9643 19.8259C20.817 19.9732 20.6831 20.134 20.5358 20.2813C18.0313 22.7724 13.8259 20.6563 10.5045 17.3349Z" fill="#009444"/>
</svg>
