<svg width="73" height="73" viewBox="0 0 73 73" fill="none" xmlns="http://www.w3.org/2000/svg">
<g clip-path="url(#clip0_1_200)">
<path d="M72.4487 1.91919C72.4322 1.58068 72.302 1.2593 72.0811 1.0122C71.8602 0.765108 71.563 0.608333 71.2424 0.569781C70.9077 0.534937 62.8919 -0.209456 53.1482 4.03199C47.5299 6.48056 39.3995 11.5488 32.4996 21.8435C29.8277 22.7273 17.5749 27.162 12.5567 35.7082C12.3985 35.9781 12.3307 36.2959 12.364 36.6109C12.3973 36.926 12.5299 37.2203 12.7407 37.4472C12.9542 37.669 13.2303 37.812 13.5278 37.8549C13.8252 37.8977 14.1279 37.838 14.3903 37.6848C14.4476 37.6499 20.0809 34.2637 25.8711 34.5488C25.3886 35.7525 24.9302 36.9721 24.508 38.1789C24.4179 38.4325 24.3985 38.7078 24.4519 38.9725C24.5053 39.2373 24.6293 39.4806 24.8095 39.674L35.4701 50.8684C35.6452 51.052 35.8647 51.1817 36.105 51.2437C36.3452 51.3057 36.5971 51.2975 36.8332 51.22C36.9689 51.1757 38.139 50.7829 40.0027 49.953C40.1263 56.3167 37.4393 62.0786 37.4122 62.1388C37.2736 62.4273 37.2333 62.7569 37.298 63.0728C37.3628 63.3887 37.5287 63.6717 37.7681 63.8747C38.0081 64.0764 38.3065 64.1864 38.614 64.1864C38.9214 64.1864 39.2198 64.0764 39.4599 63.8747C48.3592 56.5385 51.4081 45.4518 51.9901 42.9969C53.0969 42.1828 54.1795 41.3307 55.2049 40.4628C63.5523 33.4592 73.3051 21.0516 72.4487 1.91919ZM42.6686 48.7176C44.6462 47.7294 46.5747 46.6362 48.4467 45.4423C47.4153 48.4452 45.3706 53.2695 41.8121 57.6059C42.5439 54.7095 42.833 51.7093 42.6686 48.7176ZM68.3021 15.9391L58.0728 5.21351C61.867 3.98446 65.8153 3.36088 69.7858 3.36362C69.885 7.60981 69.3829 11.8479 68.2961 15.9391H68.3021ZM55.226 6.22398L67.3582 18.9673C64.7858 26.1895 60.1536 32.6704 53.5794 38.2328C48.5197 42.4665 42.8587 45.8399 36.803 48.2298L27.3578 38.3088C34.3995 18.7963 45.7717 10.3514 54.0891 6.7023C54.4509 6.54075 54.8339 6.3792 55.2199 6.22398H55.226ZM30.0629 25.803C28.9893 27.7036 27.973 29.7087 27.0472 31.793C23.938 31.4319 20.8891 32.0464 18.555 32.7876C22.2311 29.4426 27.002 27.0954 30.0629 25.803Z" fill="url(#paint0_linear_1_200)"/>
<path d="M52.7954 28.7393C54.1972 28.7393 55.5675 28.3027 56.733 27.4846C57.8985 26.6665 58.8068 25.5037 59.3431 24.1433C59.8794 22.783 60.0196 21.2861 59.7459 19.842C59.4722 18.3979 58.797 17.0716 57.8055 16.0306C56.8141 14.9897 55.5511 14.281 54.1761 13.9942C52.8012 13.7073 51.3762 13.8551 50.0813 14.419C48.7864 14.9829 47.6797 15.9375 46.9014 17.1621C46.123 18.3867 45.7079 19.8262 45.7085 21.2986C45.7109 23.2718 46.4584 25.1634 47.787 26.5583C49.1156 27.9533 50.9169 28.7376 52.7954 28.7393ZM48.4166 21.2986C48.416 20.3888 48.6723 19.4992 49.1531 18.7424C49.6339 17.9856 50.3175 17.3956 51.1176 17.047C51.9177 16.6984 52.7982 16.6069 53.6478 16.784C54.4974 16.9611 55.2779 17.3989 55.8906 18.042C56.5033 18.6851 56.9206 19.5047 57.0898 20.3969C57.259 21.2892 57.1725 22.2142 56.8412 23.0548C56.5098 23.8954 55.9486 24.6139 55.2284 25.1194C54.5083 25.625 53.6616 25.8948 52.7954 25.8948C51.6348 25.8939 50.522 25.4095 49.7011 24.5479C48.8801 23.6862 48.4182 22.5176 48.4166 21.2986Z" fill="url(#paint1_linear_1_200)"/>
<path d="M15.1865 39.9495L9.32995 46.1011C9.20421 46.2331 9.10447 46.3899 9.03643 46.5625C8.96838 46.735 8.93335 46.92 8.93335 47.1068C8.93335 47.2935 8.96838 47.4785 9.03643 47.6511C9.10447 47.8236 9.20421 47.9804 9.32995 48.1125C9.45569 48.2446 9.60495 48.3493 9.76924 48.4208C9.93353 48.4923 10.1096 48.5291 10.2874 48.5291C10.4653 48.5291 10.6413 48.4923 10.8056 48.4208C10.9699 48.3493 11.1192 48.2446 11.2449 48.1125L17.0954 41.9578C17.3486 41.6907 17.4908 41.329 17.4908 40.9521C17.4908 40.5751 17.3486 40.2135 17.0954 39.9464C16.8409 39.6827 16.4977 39.5352 16.1403 39.5358C15.7829 39.5364 15.4401 39.6851 15.1865 39.9495Z" fill="url(#paint2_linear_1_200)"/>
<path d="M6.78176 33.532C6.60399 33.5317 6.42794 33.5685 6.26383 33.6403C6.09971 33.712 5.95083 33.8173 5.82579 33.9501L0.898117 39.126C0.660261 39.3956 0.53105 39.7516 0.53759 40.1191C0.544131 40.4867 0.685916 40.8373 0.933199 41.0974C1.18048 41.3576 1.51406 41.5071 1.86397 41.5145C2.21389 41.522 2.55297 41.3868 2.81008 41.1374L7.74076 35.9615C7.92928 35.762 8.05743 35.5084 8.10911 35.2326C8.16078 34.9568 8.13367 34.6711 8.03117 34.4114C7.92868 34.1518 7.75538 33.9297 7.53308 33.7733C7.31077 33.6168 7.04937 33.5328 6.78176 33.532Z" fill="url(#paint3_linear_1_200)"/>
<path d="M28.6336 47.5582C28.6344 47.2767 28.5556 47.0012 28.407 46.7669C28.2584 46.5326 28.0468 46.35 27.7992 46.2424C27.5515 46.1347 27.279 46.1069 27.0162 46.1624C26.7534 46.2179 26.5123 46.3542 26.3235 46.554L19.9664 53.2282C19.7125 53.495 19.5698 53.8567 19.5698 54.2339C19.5698 54.6112 19.7125 54.9729 19.9664 55.2397C20.2204 55.5064 20.5648 55.6562 20.9239 55.6562C21.2831 55.6562 21.6275 55.5064 21.8814 55.2397L28.2355 48.5623C28.3619 48.431 28.4621 48.2746 28.5305 48.1022C28.5988 47.9298 28.6339 47.7449 28.6336 47.5582Z" fill="url(#paint4_linear_1_200)"/>
<path d="M32.3519 59.9816L26.1244 66.5227C25.8866 66.7924 25.7574 67.1483 25.7639 67.5159C25.7704 67.8834 25.9122 68.234 26.1595 68.4942C26.4068 68.7543 26.7404 68.9038 27.0903 68.9112C27.4402 68.9187 27.7793 68.7836 28.0364 68.5341L34.2668 61.9898C34.4005 61.8597 34.5078 61.7026 34.5823 61.5279C34.6569 61.3532 34.697 61.1645 34.7004 60.9731C34.7038 60.7817 34.6704 60.5915 34.6022 60.414C34.5339 60.2365 34.4323 60.0753 34.3033 59.94C34.1743 59.8048 34.0207 59.6982 33.8516 59.6269C33.6825 59.5555 33.5014 59.5206 33.3192 59.5245C33.137 59.5284 32.9574 59.5709 32.7911 59.6494C32.6249 59.728 32.4755 59.8409 32.3519 59.9816Z" fill="url(#paint5_linear_1_200)"/>
<path d="M43.8357 64.1311C43.4774 64.1315 43.1337 64.2806 42.8797 64.5461L37.6294 70.0609C37.4404 70.26 37.3119 70.5134 37.26 70.7892C37.2081 71.065 37.2351 71.3507 37.3377 71.6104C37.4403 71.87 37.6139 72.0919 37.8365 72.2479C38.0591 72.404 38.3207 72.4873 38.5884 72.4873C38.7659 72.4882 38.9419 72.452 39.106 72.3807C39.2702 72.3095 39.4192 72.2047 39.5443 72.0724L44.7947 66.5575C45.0479 66.2904 45.1901 65.9288 45.1901 65.5518C45.1901 65.1748 45.0479 64.8132 44.7947 64.5461C44.5399 64.2799 44.1951 64.1306 43.8357 64.1311Z" fill="url(#paint6_linear_1_200)"/>
<path d="M64.9909 41.4098C64.8127 41.4095 64.6362 41.4462 64.4716 41.518C64.307 41.5898 64.1575 41.6951 64.0319 41.828L56.1579 50.0986C55.9049 50.3652 55.7628 50.7263 55.7628 51.1027C55.7628 51.4792 55.9049 51.8403 56.1579 52.1069C56.2835 52.2393 56.4327 52.3444 56.597 52.4161C56.7613 52.4879 56.9375 52.5248 57.1154 52.5248C57.2933 52.5248 57.4695 52.4879 57.6338 52.4161C57.7982 52.3444 57.9474 52.2393 58.0729 52.1069L65.9469 43.8362C66.1357 43.6373 66.2642 43.3842 66.3162 43.1087C66.3682 42.8332 66.3414 42.5477 66.2391 42.2882C66.1369 42.0287 65.9638 41.8068 65.7417 41.6505C65.5195 41.4942 65.2583 41.4104 64.9909 41.4098Z" fill="url(#paint7_linear_1_200)"/>
<path d="M28.0998 17.2092C28.4591 17.2097 28.804 17.0605 29.0588 16.7942L36.8785 8.57744C37.0045 8.44585 37.1045 8.28939 37.1727 8.11706C37.241 7.94474 37.2761 7.75994 37.2761 7.57331C37.2761 7.38667 37.241 7.20186 37.1727 7.02954C37.1045 6.85721 37.0045 6.70075 36.8785 6.56917C36.6242 6.3032 36.2799 6.15387 35.921 6.15387C35.5621 6.15387 35.2179 6.3032 34.9635 6.56917L27.1438 14.7828C26.8906 15.0499 26.7484 15.4116 26.7484 15.7885C26.7484 16.1655 26.8906 16.5271 27.1438 16.7942C27.3978 17.0597 27.7415 17.2089 28.0998 17.2092Z" fill="url(#paint8_linear_1_200)"/>
</g>
<defs>
<linearGradient id="paint0_linear_1_200" x1="42.4285" y1="0.498474" x2="42.4285" y2="64.1864" gradientUnits="userSpaceOnUse">
<stop stop-color="#72BF44"/>
<stop offset="1" stop-color="#00786B"/>
</linearGradient>
<linearGradient id="paint1_linear_1_200" x1="52.7954" y1="13.8515" x2="52.7954" y2="28.7393" gradientUnits="userSpaceOnUse">
<stop stop-color="#72BF44"/>
<stop offset="1" stop-color="#00786B"/>
</linearGradient>
<linearGradient id="paint2_linear_1_200" x1="13.2121" y1="39.5358" x2="13.2121" y2="48.5291" gradientUnits="userSpaceOnUse">
<stop stop-color="#72BF44"/>
<stop offset="1" stop-color="#00786B"/>
</linearGradient>
<linearGradient id="paint3_linear_1_200" x1="4.336" y1="33.532" x2="4.336" y2="41.5148" gradientUnits="userSpaceOnUse">
<stop stop-color="#72BF44"/>
<stop offset="1" stop-color="#00786B"/>
</linearGradient>
<linearGradient id="paint4_linear_1_200" x1="24.1017" y1="46.1345" x2="24.1017" y2="55.6562" gradientUnits="userSpaceOnUse">
<stop stop-color="#72BF44"/>
<stop offset="1" stop-color="#00786B"/>
</linearGradient>
<linearGradient id="paint5_linear_1_200" x1="30.2322" y1="59.5242" x2="30.2322" y2="68.9115" gradientUnits="userSpaceOnUse">
<stop stop-color="#72BF44"/>
<stop offset="1" stop-color="#00786B"/>
</linearGradient>
<linearGradient id="paint6_linear_1_200" x1="41.2122" y1="64.1311" x2="41.2122" y2="72.4873" gradientUnits="userSpaceOnUse">
<stop stop-color="#72BF44"/>
<stop offset="1" stop-color="#00786B"/>
</linearGradient>
<linearGradient id="paint7_linear_1_200" x1="61.0524" y1="41.4098" x2="61.0524" y2="52.5248" gradientUnits="userSpaceOnUse">
<stop stop-color="#72BF44"/>
<stop offset="1" stop-color="#00786B"/>
</linearGradient>
<linearGradient id="paint8_linear_1_200" x1="32.0123" y1="6.15387" x2="32.0123" y2="17.2092" gradientUnits="userSpaceOnUse">
<stop stop-color="#72BF44"/>
<stop offset="1" stop-color="#00786B"/>
</linearGradient>
<clipPath id="clip0_1_200">
<rect width="72" height="72" fill="white" transform="translate(0.5 0.5)"/>
</clipPath>
</defs>
</svg>
